<?xml version="1.0" encoding="UTF-8"?><svg id="Layer_2" xmlns="http://www.w3.org/2000/svg" viewBox="0 0 59.09 13.93"><g id="Layer_1-2"><path d="m24.14,0c1.83,0,3.41.66,4.76,1.98,1.35,1.32,2.02,2.96,2.02,4.91s-.64,3.61-1.92,4.99c-1.28,1.37-2.86,2.05-4.74,2.05s-3.47-.68-4.79-2.03c-1.31-1.35-1.96-2.97-1.96-4.84,0-1.02.19-1.98.56-2.86.37-.9.86-1.65,1.48-2.25.62-.6,1.33-1.08,2.13-1.42.8-.34,1.63-.52,2.48-.52Zm-3.37,6.96c0,1.1.35,1.99,1.06,2.68.72.68,1.51,1.02,2.39,1.02s1.67-.33,2.37-1,1.06-1.56,1.06-2.68-.36-2.02-1.07-2.7c-.7-.68-1.49-1.02-2.37-1.02s-1.67.34-2.37,1.03c-.7.68-1.06,1.56-1.06,2.66Z"/><path d="m35.44.15l3.42.02c1.79,0,3.36.65,4.72,1.94,1.36,1.28,2.04,2.86,2.04,4.75s-.67,3.48-2,4.82c-1.32,1.34-2.92,2.01-4.81,2.01h-3.39c-.75,0-1.22-.15-1.41-.46-.15-.26-.22-.65-.22-1.18V1.77c0-.3,0-.51.02-.65.02-.14.09-.3.19-.48.17-.33.65-.5,1.44-.5Zm3.42,10.27c.89,0,1.69-.33,2.41-.98.72-.66,1.07-1.5,1.07-2.49s-.35-1.83-1.06-2.49c-.69-.68-1.51-1.02-2.44-1.02h-1.78v6.98h1.8Z"/><path d="m51.76,10.44h5.7c.28,0,.49.01.63.04.15.01.31.07.5.17.33.17.5.65.5,1.44,0,.86-.23,1.37-.68,1.51-.21.07-.53.11-.96.11h-7.33c-.86,0-1.37-.23-1.52-.7-.07-.2-.11-.51-.11-.94V1.79c0-.63.12-1.05.35-1.27.23-.23.68-.35,1.33-.35h7.29c.28,0,.49.01.63.04.15.01.31.07.5.17.33.17.5.65.5,1.44,0,.86-.23,1.37-.68,1.51-.21.07-.53.11-.96.11h-5.68v1.87h3.66c.28,0,.49.01.63.04.15.01.31.07.5.17.33.17.5.65.5,1.44,0,.86-.23,1.37-.7,1.51-.21.07-.53.11-.96.11h-3.63v1.87Z"/><path d="m14.42.68c.1.18.15.35.17.5.02.15.04.36.04.65v10.25c0,.85-.23,1.35-.7,1.5-.23.07-.53.11-.89.11s-.64-.03-.85-.09c-.21-.06-.37-.14-.48-.22-.11-.09-.2-.21-.26-.37-.06-.21-.09-.53-.09-.96v-6.19c-.31.38-.76.99-1.35,1.83-.59.83-.97,1.34-1.13,1.55-.16.21-.27.36-.33.44-.06.07-.22.18-.46.33-.23.14-.49.2-.78.2s-.52-.06-.76-.18c-.22-.14-.38-.26-.48-.39l-.15-.2c-.25-.31-.73-.96-1.46-1.96-.73-1.01-1.12-1.55-1.18-1.63v6.23c0,.28-.01.5-.04.65-.01.14-.07.29-.17.46-.19.33-.67.5-1.44.5s-1.22-.17-1.41-.5c-.1-.17-.16-.33-.19-.48-.01-.15-.02-.37-.02-.66V1.79c0-.28,0-.49.02-.63.02-.15.09-.31.19-.5C.39.34.87.18,1.65.18c.33,0,.62.04.85.13.25.07.41.15.48.24l.11.11,4.2,5.5c2.1-2.77,3.5-4.6,4.2-5.49.21-.33.7-.5,1.48-.5s1.27.17,1.44.5Z"/></g></svg>
